{
	"asset":{
		"version":"2.0",
		"generator":"Houdini GLTF 2.0 Exporter"
	},
	"accessors":[
		{
			"bufferView":0,
			"componentType":5123,
			"count":396,
			"type":"SCALAR",
			"min":[0
			],
			"max":[395
			]
		},
		{
			"bufferView":1,
			"componentType":5126,
			"count":396,
			"type":"VEC3",
			"min":[-0.255711436,0.0527854338,-0.0826499462
			],
			"max":[0.218827337,1.81139994,0.252358258
			]
		},
		{
			"bufferView":2,
			"componentType":5126,
			"count":396,
			"type":"SCALAR",
			"min":[-3.38466811
			],
			"max":[5.81894588
			]
		},
		{
			"bufferView":3,
			"componentType":5126,
			"count":396,
			"type":"VEC2",
			"min":[0.000974658877,0.0077188015
			],
			"max":[0.99805361,0.999025345
			]
		},
		{
			"bufferView":4,
			"componentType":5123,
			"count":1860,
			"type":"SCALAR",
			"min":[0
			],
			"max":[1859
			]
		},
		{
			"bufferView":5,
			"componentType":5126,
			"count":1860,
			"type":"VEC3",
			"min":[-6.60000038,-0.0159574971,-6.60000038
			],
			"max":[6.60000038,6.70260906,6.60000038
			]
		},
		{
			"bufferView":6,
			"componentType":5126,
			"count":1860,
			"type":"VEC2",
			"min":[0,-0.685325265
			],
			"max":[0.0350975841,1.68532526
			]
		},
		{
			"bufferView":7,
			"componentType":5126,
			"count":1860,
			"type":"VEC3",
			"min":[-1,-0.999939144,-1
			],
			"max":[1,0.995540261,1
			]
		},
		{
			"bufferView":8,
			"componentType":5121,
			"count":6,
			"type":"SCALAR",
			"min":[0
			],
			"max":[5
			]
		},
		{
			"bufferView":9,
			"componentType":5126,
			"count":6,
			"type":"VEC3",
			"min":[-6.24000025,-0.0159574971,6.24000025
			],
			"max":[6.24000025,6.34260893,6.24000025
			]
		},
		{
			"bufferView":10,
			"componentType":5126,
			"count":6,
			"type":"VEC2",
			"min":[-0.100000024,-0.000501871109
			],
			"max":[1.10000002,1.19949806
			]
		},
		{
			"bufferView":11,
			"componentType":5126,
			"count":6,
			"type":"VEC3",
			"min":[0,0,-1
			],
			"max":[0,0,-1
			]
		},
		{
			"bufferView":12,
			"componentType":5121,
			"count":6,
			"type":"SCALAR",
			"min":[0
			],
			"max":[5
			]
		},
		{
			"bufferView":13,
			"componentType":5126,
			"count":6,
			"type":"VEC3",
			"min":[-6.24000025,-0.0159574971,-6.24000025
			],
			"max":[-6.24000025,6.34260893,6.24000025
			]
		},
		{
			"bufferView":14,
			"componentType":5126,
			"count":6,
			"type":"VEC2",
			"min":[-0.100000024,-0.000501871109
			],
			"max":[1.10000002,1.19949806
			]
		},
		{
			"bufferView":15,
			"componentType":5126,
			"count":6,
			"type":"VEC3",
			"min":[1,0,0
			],
			"max":[1,0,0
			]
		},
		{
			"bufferView":16,
			"componentType":5121,
			"count":6,
			"type":"SCALAR",
			"min":[0
			],
			"max":[5
			]
		},
		{
			"bufferView":17,
			"componentType":5126,
			"count":6,
			"type":"VEC3",
			"min":[-6.24000025,-0.0159574971,-6.24000025
			],
			"max":[6.24000025,6.34260893,-6.24000025
			]
		},
		{
			"bufferView":18,
			"componentType":5126,
			"count":6,
			"type":"VEC2",
			"min":[-0.100000024,-0.000501871109
			],
			"max":[1.10000002,1.19949806
			]
		},
		{
			"bufferView":19,
			"componentType":5126,
			"count":6,
			"type":"VEC3",
			"min":[0,0,1
			],
			"max":[0,0,1
			]
		},
		{
			"bufferView":20,
			"componentType":5123,
			"count":1842,
			"type":"SCALAR",
			"min":[0
			],
			"max":[1841
			]
		},
		{
			"bufferView":21,
			"componentType":5126,
			"count":1842,
			"type":"VEC3",
			"min":[-6.60000038,-0.0159574971,-6.60000038
			],
			"max":[6.60000038,6.70260906,6.60000038
			]
		},
		{
			"bufferView":22,
			"componentType":5126,
			"count":1842,
			"type":"VEC2",
			"min":[0,0.314148366
			],
			"max":[0.999518156,1
			]
		},
		{
			"bufferView":23,
			"componentType":5126,
			"count":1842,
			"type":"VEC3",
			"min":[-1,-1,-1
			],
			"max":[1,1,1
			]
		},
		{
			"bufferView":24,
			"componentType":5125,
			"count":1842,
			"type":"SCALAR",
			"min":[0
			],
			"max":[0
			]
		},
		{
			"bufferView":25,
			"componentType":5126,
			"count":1842,
			"type":"SCALAR",
			"min":[0.359531403
			],
			"max":[0.359531403
			]
		}
	],
	"buffers":[
		{
			"uri":"gallery_data.bin",
			"byteLength":151500,
			"name":"main_buffer"
		}
	],
	"bufferViews":[
		{
			"buffer":0,
			"byteLength":792,
			"target":34963
		},
		{
			"buffer":0,
			"byteOffset":792,
			"byteLength":4752,
			"target":34962
		},
		{
			"buffer":0,
			"byteOffset":5544,
			"byteLength":1584,
			"target":34962
		},
		{
			"buffer":0,
			"byteOffset":7128,
			"byteLength":3168,
			"target":34962
		},
		{
			"buffer":0,
			"byteOffset":10296,
			"byteLength":3720,
			"target":34963
		},
		{
			"buffer":0,
			"byteOffset":14016,
			"byteLength":22320,
			"target":34962
		},
		{
			"buffer":0,
			"byteOffset":36336,
			"byteLength":14880,
			"target":34962
		},
		{
			"buffer":0,
			"byteOffset":51216,
			"byteLength":22320,
			"target":34962
		},
		{
			"buffer":0,
			"byteOffset":73536,
			"byteLength":6,
			"target":34963
		},
		{
			"buffer":0,
			"byteOffset":73544,
			"byteLength":72,
			"target":34962
		},
		{
			"buffer":0,
			"byteOffset":73616,
			"byteLength":48,
			"target":34962
		},
		{
			"buffer":0,
			"byteOffset":73664,
			"byteLength":72,
			"target":34962
		},
		{
			"buffer":0,
			"byteOffset":73736,
			"byteLength":6,
			"target":34963
		},
		{
			"buffer":0,
			"byteOffset":73744,
			"byteLength":72,
			"target":34962
		},
		{
			"buffer":0,
			"byteOffset":73816,
			"byteLength":48,
			"target":34962
		},
		{
			"buffer":0,
			"byteOffset":73864,
			"byteLength":72,
			"target":34962
		},
		{
			"buffer":0,
			"byteOffset":73936,
			"byteLength":6,
			"target":34963
		},
		{
			"buffer":0,
			"byteOffset":73944,
			"byteLength":72,
			"target":34962
		},
		{
			"buffer":0,
			"byteOffset":74016,
			"byteLength":48,
			"target":34962
		},
		{
			"buffer":0,
			"byteOffset":74064,
			"byteLength":72,
			"target":34962
		},
		{
			"buffer":0,
			"byteOffset":74136,
			"byteLength":3684,
			"target":34963
		},
		{
			"buffer":0,
			"byteOffset":77820,
			"byteLength":22104,
			"target":34962
		},
		{
			"buffer":0,
			"byteOffset":99924,
			"byteLength":14736,
			"target":34962
		},
		{
			"buffer":0,
			"byteOffset":114660,
			"byteLength":22104,
			"target":34962
		},
		{
			"buffer":0,
			"byteOffset":136764,
			"byteLength":7368,
			"target":34962
		},
		{
			"buffer":0,
			"byteOffset":144132,
			"byteLength":7368,
			"target":34962
		}
	],
	"nodes":[
		{
			"children":[31,32,33,34
			],
			"name":"Root"
		},
		{
			"name":"sculpts"
		},
		{
			"children":[3
			],
			"matrix":[0.869843245,0,0.493328243,0,0,1,0,0,-0.493328243,0,0.869843245,0,3.87101817,0,-7.00473547,1
			],
			"name":"kif_abstract_char1"
		},
		{
			"name":"mesh",
			"mesh":0
		},
		{
			"name":"ground"
		},
		{
			"children":[6,7
			],
			"name":"sculpt_04"
		},
		{
			"name":"body"
		},
		{
			"name":"sphere"
		},
		{
			"children":[9,10
			],
			"name":"sculpt_wire"
		},
		{
			"name":"body"
		},
		{
			"name":"sphere"
		},
		{
			"name":"ground_wire"
		},
		{
			"matrix":[1000,0,0,0,0,1000,0,0,0,0,1000,0,0,0,0,1
			],
			"name":"sky"
		},
		{
			"matrix":[2.18356991,0,0,0,0,2.18356991,0,0,0,0,2.18356991,0,0,0.00999999978,0,1
			],
			"name":"diagram"
		},
		{
			"children":[17
			],
			"matrix":[1,0,0,0,0,1,0,0,0,0,1,0,-21.4706211,0,40.0602875,1
			],
			"name":"sculpt_03_1"
		},
		{
			"children":[16
			],
			"matrix":[1,0,0,0,0,1,0,0,0,0,1,0,22.8497601,0,40.0602875,1
			],
			"name":"sculpt_02_1"
		},
		{
			"matrix":[2.18356991,0,0,0,0,2.18356991,0,0,1.32337966e-16,0,2.18356991,0,-0.242546558,0.00999999978,-1.0672822,1
			],
			"name":"diagram1"
		},
		{
			"matrix":[2.18356991,0,0,0,0,2.18356991,0,0,0,-6.46181475e-20,2.18356991,0,1.90381575,0.00999999978,-1.45366907,1
			],
			"name":"diagram2"
		},
		{
			"matrix":[1,0,0,0,0,1,0,0,0,0,1,0,0,-1.09592843,0,1
			],
			"name":"hills"
		},
		{
			"name":"hills_wire"
		},
		{
			"children":[21,22
			],
			"name":"sculpt_01"
		},
		{
			"name":"body"
		},
		{
			"name":"sphere"
		},
		{
			"children":[24,25
			],
			"name":"sculpt_02"
		},
		{
			"name":"body"
		},
		{
			"name":"sphere"
		},
		{
			"children":[27,28
			],
			"name":"sculpt_03"
		},
		{
			"name":"body"
		},
		{
			"name":"sphere"
		},
		{
			"name":"geo1"
		},
		{
			"name":"gallery_master",
			"mesh":1
		},
		{
			"name":"wall1",
			"mesh":2
		},
		{
			"name":"wall2",
			"mesh":3
		},
		{
			"name":"wall3",
			"mesh":4
		},
		{
			"name":"concrete",
			"mesh":5
		}
	],
	"meshes":[
		{
			"primitives":[
				{
					"attributes":{
						"TEXCOORD_0":3,
						"_curvature":2,
						"POSITION":1
					},
					"indices":0
				}
			]
		},
		{
			"primitives":[
				{
					"attributes":{
						"NORMAL":7,
						"TEXCOORD_0":6,
						"POSITION":5
					},
					"indices":4
				}
			]
		},
		{
			"primitives":[
				{
					"attributes":{
						"NORMAL":11,
						"TEXCOORD_0":10,
						"POSITION":9
					},
					"indices":8
				}
			]
		},
		{
			"primitives":[
				{
					"attributes":{
						"NORMAL":15,
						"TEXCOORD_0":14,
						"POSITION":13
					},
					"indices":12
				}
			]
		},
		{
			"primitives":[
				{
					"attributes":{
						"NORMAL":19,
						"TEXCOORD_0":18,
						"POSITION":17
					},
					"indices":16
				}
			]
		},
		{
			"primitives":[
				{
					"attributes":{
						"_coverage":25,
						"_numnonpacked":24,
						"NORMAL":23,
						"TEXCOORD_0":22,
						"POSITION":21
					},
					"indices":20
				}
			]
		}
	],
	"scenes":[
		{
			"nodes":[0
			]
		}
	],
	"scene":0
}
