{
	"asset":{
		"version":"2.0",
		"generator":"Houdini GLTF 2.0 Exporter"
	},
	"accessors":[
		{
			"bufferView":0,
			"componentType":5125,
			"count":74697,
			"type":"SCALAR",
			"min":[0
			],
			"max":[74696
			]
		},
		{
			"bufferView":1,
			"componentType":5126,
			"count":74697,
			"type":"VEC3",
			"min":[-498.799316,-51.8747406,-498.468628
			],
			"max":[498.69043,84.5046463,498.406036
			]
		},
		{
			"bufferView":2,
			"componentType":5126,
			"count":74697,
			"type":"VEC2",
			"min":[0,0
			],
			"max":[1,1
			]
		},
		{
			"bufferView":3,
			"componentType":5126,
			"count":74697,
			"type":"VEC3",
			"min":[-0.993871689,-0.194330484,-0.994226933
			],
			"max":[0.993842721,1,0.984010756
			]
		}
	],
	"buffers":[
		{
			"uri":"mountains_data.bin",
			"byteLength":2689092,
			"name":"main_buffer"
		}
	],
	"bufferViews":[
		{
			"buffer":0,
			"byteLength":298788,
			"target":34963
		},
		{
			"buffer":0,
			"byteOffset":298788,
			"byteLength":896364,
			"target":34962
		},
		{
			"buffer":0,
			"byteOffset":1195152,
			"byteLength":597576,
			"target":34962
		},
		{
			"buffer":0,
			"byteOffset":1792728,
			"byteLength":896364,
			"target":34962
		}
	],
	"nodes":[
		{
			"name":"hills",
			"mesh":0
		}
	],
	"meshes":[
		{
			"primitives":[
				{
					"attributes":{
						"NORMAL":3,
						"TEXCOORD_0":2,
						"POSITION":1
					},
					"indices":0
				}
			]
		}
	],
	"scenes":[
		{
			"nodes":[0
			]
		}
	],
	"scene":0
}
