{
	"asset":{
		"version":"2.0",
		"generator":"Houdini GLTF 2.0 Exporter"
	},
	"accessors":[
		{
			"bufferView":0,
			"componentType":5125,
			"count":46338,
			"type":"SCALAR",
			"min":[0
			],
			"max":[46337
			]
		},
		{
			"bufferView":1,
			"componentType":5126,
			"count":46338,
			"type":"VEC3",
			"min":[-499.093262,-20.6745872,-499.297028
			],
			"max":[499.206757,78.3886642,499.292542
			]
		},
		{
			"bufferView":2,
			"componentType":5126,
			"count":46338,
			"type":"VEC3",
			"min":[0.77966404,0.799046457,0.830664039
			],
			"max":[1,1,1
			]
		},
		{
			"bufferView":3,
			"componentType":5126,
			"count":46338,
			"type":"VEC2",
			"min":[-0.000294685364,-0.0008893013
			],
			"max":[1.00051761,1.00083089
			]
		},
		{
			"bufferView":4,
			"componentType":5126,
			"count":46338,
			"type":"VEC3",
			"min":[-0.945834637,-0.805652738,-0.986889005
			],
			"max":[0.977740407,0.999999642,0.975714624
			]
		}
	],
	"buffers":[
		{
			"uri":"mountains_data.bin",
			"byteLength":2224224,
			"name":"main_buffer"
		}
	],
	"bufferViews":[
		{
			"buffer":0,
			"byteLength":185352,
			"target":34963
		},
		{
			"buffer":0,
			"byteOffset":185352,
			"byteLength":556056,
			"target":34962
		},
		{
			"buffer":0,
			"byteOffset":741408,
			"byteLength":556056,
			"target":34962
		},
		{
			"buffer":0,
			"byteOffset":1297464,
			"byteLength":370704,
			"target":34962
		},
		{
			"buffer":0,
			"byteOffset":1668168,
			"byteLength":556056,
			"target":34962
		}
	],
	"nodes":[
		{
			"name":"hills",
			"mesh":0
		}
	],
	"meshes":[
		{
			"primitives":[
				{
					"attributes":{
						"NORMAL":4,
						"COLOR_0":2,
						"TEXCOORD_0":3,
						"POSITION":1
					},
					"indices":0
				}
			]
		}
	],
	"scenes":[
		{
			"nodes":[0
			]
		}
	],
	"scene":0
}
