{
	"asset":{
		"version":"2.0",
		"generator":"Houdini GLTF 2.0 Exporter"
	},
	"accessors":[
		{
			"bufferView":0,
			"componentType":5123,
			"count":6420,
			"type":"SCALAR",
			"min":[0
			],
			"max":[6419
			]
		},
		{
			"bufferView":1,
			"componentType":5126,
			"count":6420,
			"type":"VEC3",
			"min":[-3.28435183,0,-5.30550766
			],
			"max":[3.28435206,8.14836597,5.30550909
			]
		},
		{
			"bufferView":2,
			"componentType":5126,
			"count":6420,
			"type":"VEC2",
			"min":[-0.00172815297,-2.62260437e-05
			],
			"max":[1.00100493,1.00001752
			]
		},
		{
			"bufferView":3,
			"componentType":5126,
			"count":6420,
			"type":"VEC3",
			"min":[-1,-1,-1
			],
			"max":[1,1,1
			]
		}
	],
	"buffers":[
		{
			"uri":"sculpt_02_data.bin",
			"byteLength":218280,
			"name":"main_buffer"
		}
	],
	"bufferViews":[
		{
			"buffer":0,
			"byteLength":12840,
			"target":34963
		},
		{
			"buffer":0,
			"byteOffset":12840,
			"byteLength":77040,
			"target":34962
		},
		{
			"buffer":0,
			"byteOffset":89880,
			"byteLength":51360,
			"target":34962
		},
		{
			"buffer":0,
			"byteOffset":141240,
			"byteLength":77040,
			"target":34962
		}
	],
	"nodes":[
		{
			"name":"sculpts",
			"mesh":0
		}
	],
	"meshes":[
		{
			"primitives":[
				{
					"attributes":{
						"NORMAL":3,
						"TEXCOORD_0":2,
						"POSITION":1
					},
					"indices":0
				}
			]
		}
	],
	"scenes":[
		{
			"nodes":[0
			]
		}
	],
	"scene":0
}
