{
	"asset":{
		"version":"2.0",
		"generator":"Houdini GLTF 2.0 Exporter"
	},
	"accessors":[
		{
			"bufferView":0,
			"componentType":5123,
			"count":4824,
			"type":"SCALAR",
			"min":[0
			],
			"max":[4823
			]
		},
		{
			"bufferView":1,
			"componentType":5126,
			"count":4824,
			"type":"VEC3",
			"min":[-3.82042503,0,-2.6059742
			],
			"max":[3.8170135,7.71813965,2.60341334
			]
		},
		{
			"bufferView":2,
			"componentType":5126,
			"count":4824,
			"type":"VEC2",
			"min":[-0.0026988429,-0.000179290771
			],
			"max":[1.00101781,1.0335815
			]
		},
		{
			"bufferView":3,
			"componentType":5126,
			"count":4824,
			"type":"VEC3",
			"min":[-1,-1,-1
			],
			"max":[1,1,1
			]
		}
	],
	"buffers":[
		{
			"uri":"sculpt_04_data.bin",
			"byteLength":164016,
			"name":"main_buffer"
		}
	],
	"bufferViews":[
		{
			"buffer":0,
			"byteLength":9648,
			"target":34963
		},
		{
			"buffer":0,
			"byteOffset":9648,
			"byteLength":57888,
			"target":34962
		},
		{
			"buffer":0,
			"byteOffset":67536,
			"byteLength":38592,
			"target":34962
		},
		{
			"buffer":0,
			"byteOffset":106128,
			"byteLength":57888,
			"target":34962
		}
	],
	"nodes":[
		{
			"name":"sculpts",
			"mesh":0
		}
	],
	"meshes":[
		{
			"primitives":[
				{
					"attributes":{
						"NORMAL":3,
						"TEXCOORD_0":2,
						"POSITION":1
					},
					"indices":0
				}
			]
		}
	],
	"scenes":[
		{
			"nodes":[0
			]
		}
	],
	"scene":0
}
