{
	"asset":{
		"version":"2.0",
		"generator":"Houdini GLTF 2.0 Exporter"
	},
	"accessors":[
		{
			"bufferView":0,
			"componentType":5123,
			"count":1896,
			"type":"SCALAR",
			"min":[0
			],
			"max":[1895
			]
		},
		{
			"bufferView":1,
			"componentType":5126,
			"count":1896,
			"type":"VEC3",
			"min":[-3.27277088,0,-2.40141225
			],
			"max":[3.27277327,6.57085562,2.40141225
			]
		},
		{
			"bufferView":2,
			"componentType":5126,
			"count":1896,
			"type":"VEC2",
			"min":[0,0
			],
			"max":[1,1
			]
		},
		{
			"bufferView":3,
			"componentType":5126,
			"count":1896,
			"type":"VEC3",
			"min":[-1,-1,-1
			],
			"max":[1,1,1
			]
		}
	],
	"buffers":[
		{
			"uri":"sculpt_03_data.bin",
			"byteLength":64464,
			"name":"main_buffer"
		}
	],
	"bufferViews":[
		{
			"buffer":0,
			"byteLength":3792,
			"target":34963
		},
		{
			"buffer":0,
			"byteOffset":3792,
			"byteLength":22752,
			"target":34962
		},
		{
			"buffer":0,
			"byteOffset":26544,
			"byteLength":15168,
			"target":34962
		},
		{
			"buffer":0,
			"byteOffset":41712,
			"byteLength":22752,
			"target":34962
		}
	],
	"nodes":[
		{
			"name":"sculpts",
			"mesh":0
		}
	],
	"meshes":[
		{
			"primitives":[
				{
					"attributes":{
						"NORMAL":3,
						"TEXCOORD_0":2,
						"POSITION":1
					},
					"indices":0
				}
			]
		}
	],
	"scenes":[
		{
			"nodes":[0
			]
		}
	],
	"scene":0
}
