{
	"asset":{
		"version":"2.0",
		"generator":"Houdini GLTF 2.0 Exporter"
	},
	"accessors":[
		{
			"bufferView":0,
			"componentType":5123,
			"count":1020,
			"type":"SCALAR",
			"min":[0
			],
			"max":[1019
			]
		},
		{
			"bufferView":1,
			"componentType":5126,
			"count":1020,
			"type":"VEC3",
			"min":[-2.62478495,-0.0169951208,-2.6059742
			],
			"max":[3.8170135,6.01143503,1.31397903
			]
		},
		{
			"bufferView":2,
			"componentType":5126,
			"count":1020,
			"type":"VEC2",
			"min":[0,-18.5049953
			],
			"max":[19.9669704,1
			]
		},
		{
			"bufferView":3,
			"componentType":5126,
			"count":1020,
			"type":"VEC3",
			"min":[-1,-1,-1
			],
			"max":[1,1,1
			]
		},
		{
			"bufferView":4,
			"componentType":5125,
			"count":1020,
			"type":"SCALAR",
			"min":[0
			],
			"max":[0
			]
		},
		{
			"bufferView":5,
			"componentType":5126,
			"count":1020,
			"type":"SCALAR",
			"min":[0.649094582
			],
			"max":[0.649094582
			]
		},
		{
			"bufferView":6,
			"componentType":5123,
			"count":552,
			"type":"SCALAR",
			"min":[0
			],
			"max":[551
			]
		},
		{
			"bufferView":7,
			"componentType":5126,
			"count":552,
			"type":"VEC3",
			"min":[-2.92692018,0,-0.658339202
			],
			"max":[2.92692018,8.54632378,0.621660769
			]
		},
		{
			"bufferView":8,
			"componentType":5126,
			"count":552,
			"type":"VEC2",
			"min":[0,0.0377251506
			],
			"max":[0.999446154,1
			]
		},
		{
			"bufferView":9,
			"componentType":5126,
			"count":552,
			"type":"VEC3",
			"min":[-1,-1,-1
			],
			"max":[1,1,1
			]
		},
		{
			"bufferView":10,
			"componentType":5125,
			"count":552,
			"type":"SCALAR",
			"min":[0
			],
			"max":[0
			]
		},
		{
			"bufferView":11,
			"componentType":5126,
			"count":552,
			"type":"SCALAR",
			"min":[0.391846657
			],
			"max":[0.391846657
			]
		},
		{
			"bufferView":12,
			"componentType":5123,
			"count":1536,
			"type":"SCALAR",
			"min":[0
			],
			"max":[1535
			]
		},
		{
			"bufferView":13,
			"componentType":5126,
			"count":1536,
			"type":"VEC3",
			"min":[-0.563524187,0.00551696774,-1.66142821
			],
			"max":[0.406036377,5.68329144,1.66142821
			]
		},
		{
			"bufferView":14,
			"componentType":5126,
			"count":1536,
			"type":"VEC2",
			"min":[0,0.0299486518
			],
			"max":[0.999887824,1
			]
		},
		{
			"bufferView":15,
			"componentType":5126,
			"count":1536,
			"type":"VEC3",
			"min":[-1,-1,-0.999988973
			],
			"max":[1,1,0.999988973
			]
		},
		{
			"bufferView":16,
			"componentType":5125,
			"count":1536,
			"type":"SCALAR",
			"min":[0
			],
			"max":[0
			]
		},
		{
			"bufferView":17,
			"componentType":5126,
			"count":1536,
			"type":"SCALAR",
			"min":[0.391846657
			],
			"max":[0.391846657
			]
		},
		{
			"bufferView":18,
			"componentType":5123,
			"count":1716,
			"type":"SCALAR",
			"min":[0
			],
			"max":[1715
			]
		},
		{
			"bufferView":19,
			"componentType":5126,
			"count":1716,
			"type":"VEC3",
			"min":[-3.28435183,0,-5.30550766
			],
			"max":[3.28435206,6.3055191,5.30550909
			]
		},
		{
			"bufferView":20,
			"componentType":5126,
			"count":1716,
			"type":"VEC2",
			"min":[0,0.0462031364
			],
			"max":[0.999780118,1
			]
		},
		{
			"bufferView":21,
			"componentType":5126,
			"count":1716,
			"type":"VEC3",
			"min":[-1,-1,-1
			],
			"max":[1,1,1
			]
		},
		{
			"bufferView":22,
			"componentType":5125,
			"count":1716,
			"type":"SCALAR",
			"min":[0
			],
			"max":[0
			]
		},
		{
			"bufferView":23,
			"componentType":5126,
			"count":1716,
			"type":"SCALAR",
			"min":[0.604263306
			],
			"max":[0.604263306
			]
		},
		{
			"bufferView":24,
			"componentType":5123,
			"count":4704,
			"type":"SCALAR",
			"min":[0
			],
			"max":[4703
			]
		},
		{
			"bufferView":25,
			"componentType":5126,
			"count":4704,
			"type":"VEC3",
			"min":[-0.9560619,6.23148203,-1.08679974
			],
			"max":[0.958624244,8.14836597,0.826605797
			]
		},
		{
			"bufferView":26,
			"componentType":5126,
			"count":4704,
			"type":"VEC2",
			"min":[0.0048828125,0.0196013451
			],
			"max":[0.983054936,1
			]
		},
		{
			"bufferView":27,
			"componentType":5126,
			"count":4704,
			"type":"VEC3",
			"min":[-0.997428119,-0.999942362,-0.999827921
			],
			"max":[0.999957442,0.999937057,0.996764481
			]
		},
		{
			"bufferView":28,
			"componentType":5125,
			"count":4704,
			"type":"SCALAR",
			"min":[0
			],
			"max":[0
			]
		},
		{
			"bufferView":29,
			"componentType":5126,
			"count":4704,
			"type":"SCALAR",
			"min":[0.604263306
			],
			"max":[0.604263306
			]
		},
		{
			"bufferView":30,
			"componentType":5123,
			"count":360,
			"type":"SCALAR",
			"min":[0
			],
			"max":[359
			]
		},
		{
			"bufferView":31,
			"componentType":5126,
			"count":360,
			"type":"VEC3",
			"min":[-3.27277088,0,-2.40141225
			],
			"max":[3.21184063,6.57085562,2.40141225
			]
		},
		{
			"bufferView":32,
			"componentType":5126,
			"count":360,
			"type":"VEC2",
			"min":[0,0.0160276294
			],
			"max":[0.999730706,1
			]
		},
		{
			"bufferView":33,
			"componentType":5126,
			"count":360,
			"type":"VEC3",
			"min":[-1,-1,-1
			],
			"max":[1,1,1
			]
		},
		{
			"bufferView":34,
			"componentType":5125,
			"count":360,
			"type":"SCALAR",
			"min":[0
			],
			"max":[0
			]
		},
		{
			"bufferView":35,
			"componentType":5126,
			"count":360,
			"type":"SCALAR",
			"min":[0.598394394
			],
			"max":[0.598394394
			]
		},
		{
			"bufferView":36,
			"componentType":5123,
			"count":1536,
			"type":"SCALAR",
			"min":[0
			],
			"max":[1535
			]
		},
		{
			"bufferView":37,
			"componentType":5126,
			"count":1536,
			"type":"VEC3",
			"min":[-2.34901118,3.15501094,1.33494258
			],
			"max":[3.27277327,6.47786713,2.39734244
			]
		},
		{
			"bufferView":38,
			"componentType":5126,
			"count":1536,
			"type":"VEC2",
			"min":[0,0.37820524
			],
			"max":[0.999350548,1
			]
		},
		{
			"bufferView":39,
			"componentType":5126,
			"count":1536,
			"type":"VEC3",
			"min":[-1,-0.999988794,-1
			],
			"max":[1,0.999988794,1
			]
		},
		{
			"bufferView":40,
			"componentType":5125,
			"count":1536,
			"type":"SCALAR",
			"min":[0
			],
			"max":[0
			]
		},
		{
			"bufferView":41,
			"componentType":5126,
			"count":1536,
			"type":"SCALAR",
			"min":[0.598394394
			],
			"max":[0.598394394
			]
		}
	],
	"buffers":[
		{
			"uri":"sculpt_01_data.bin",
			"byteLength":479808,
			"name":"main_buffer"
		}
	],
	"bufferViews":[
		{
			"buffer":0,
			"byteLength":2040,
			"target":34963
		},
		{
			"buffer":0,
			"byteOffset":2040,
			"byteLength":12240,
			"target":34962
		},
		{
			"buffer":0,
			"byteOffset":14280,
			"byteLength":8160,
			"target":34962
		},
		{
			"buffer":0,
			"byteOffset":22440,
			"byteLength":12240,
			"target":34962
		},
		{
			"buffer":0,
			"byteOffset":34680,
			"byteLength":4080,
			"target":34962
		},
		{
			"buffer":0,
			"byteOffset":38760,
			"byteLength":4080,
			"target":34962
		},
		{
			"buffer":0,
			"byteOffset":42840,
			"byteLength":1104,
			"target":34963
		},
		{
			"buffer":0,
			"byteOffset":43944,
			"byteLength":6624,
			"target":34962
		},
		{
			"buffer":0,
			"byteOffset":50568,
			"byteLength":4416,
			"target":34962
		},
		{
			"buffer":0,
			"byteOffset":54984,
			"byteLength":6624,
			"target":34962
		},
		{
			"buffer":0,
			"byteOffset":61608,
			"byteLength":2208,
			"target":34962
		},
		{
			"buffer":0,
			"byteOffset":63816,
			"byteLength":2208,
			"target":34962
		},
		{
			"buffer":0,
			"byteOffset":66024,
			"byteLength":3072,
			"target":34963
		},
		{
			"buffer":0,
			"byteOffset":69096,
			"byteLength":18432,
			"target":34962
		},
		{
			"buffer":0,
			"byteOffset":87528,
			"byteLength":12288,
			"target":34962
		},
		{
			"buffer":0,
			"byteOffset":99816,
			"byteLength":18432,
			"target":34962
		},
		{
			"buffer":0,
			"byteOffset":118248,
			"byteLength":6144,
			"target":34962
		},
		{
			"buffer":0,
			"byteOffset":124392,
			"byteLength":6144,
			"target":34962
		},
		{
			"buffer":0,
			"byteOffset":130536,
			"byteLength":3432,
			"target":34963
		},
		{
			"buffer":0,
			"byteOffset":133968,
			"byteLength":20592,
			"target":34962
		},
		{
			"buffer":0,
			"byteOffset":154560,
			"byteLength":13728,
			"target":34962
		},
		{
			"buffer":0,
			"byteOffset":168288,
			"byteLength":20592,
			"target":34962
		},
		{
			"buffer":0,
			"byteOffset":188880,
			"byteLength":6864,
			"target":34962
		},
		{
			"buffer":0,
			"byteOffset":195744,
			"byteLength":6864,
			"target":34962
		},
		{
			"buffer":0,
			"byteOffset":202608,
			"byteLength":9408,
			"target":34963
		},
		{
			"buffer":0,
			"byteOffset":212016,
			"byteLength":56448,
			"target":34962
		},
		{
			"buffer":0,
			"byteOffset":268464,
			"byteLength":37632,
			"target":34962
		},
		{
			"buffer":0,
			"byteOffset":306096,
			"byteLength":56448,
			"target":34962
		},
		{
			"buffer":0,
			"byteOffset":362544,
			"byteLength":18816,
			"target":34962
		},
		{
			"buffer":0,
			"byteOffset":381360,
			"byteLength":18816,
			"target":34962
		},
		{
			"buffer":0,
			"byteOffset":400176,
			"byteLength":720,
			"target":34963
		},
		{
			"buffer":0,
			"byteOffset":400896,
			"byteLength":4320,
			"target":34962
		},
		{
			"buffer":0,
			"byteOffset":405216,
			"byteLength":2880,
			"target":34962
		},
		{
			"buffer":0,
			"byteOffset":408096,
			"byteLength":4320,
			"target":34962
		},
		{
			"buffer":0,
			"byteOffset":412416,
			"byteLength":1440,
			"target":34962
		},
		{
			"buffer":0,
			"byteOffset":413856,
			"byteLength":1440,
			"target":34962
		},
		{
			"buffer":0,
			"byteOffset":415296,
			"byteLength":3072,
			"target":34963
		},
		{
			"buffer":0,
			"byteOffset":418368,
			"byteLength":18432,
			"target":34962
		},
		{
			"buffer":0,
			"byteOffset":436800,
			"byteLength":12288,
			"target":34962
		},
		{
			"buffer":0,
			"byteOffset":449088,
			"byteLength":18432,
			"target":34962
		},
		{
			"buffer":0,
			"byteOffset":467520,
			"byteLength":6144,
			"target":34962
		},
		{
			"buffer":0,
			"byteOffset":473664,
			"byteLength":6144,
			"target":34962
		}
	],
	"nodes":[
		{
			"children":[20,21
			],
			"name":"Root"
		},
		{
			"name":"sculpts"
		},
		{
			"children":[3
			],
			"matrix":[0.869843245,0,0.493328243,0,0,1,0,0,-0.493328243,0,0.869843245,0,3.87101817,0,-7.00473547,1
			],
			"name":"kif_abstract_char1"
		},
		{
			"name":"mesh"
		},
		{
			"name":"ground"
		},
		{
			"children":[6,7
			],
			"name":"sculpt_04"
		},
		{
			"name":"body",
			"mesh":0
		},
		{
			"name":"sphere"
		},
		{
			"children":[9,10
			],
			"name":"sculpt_wire"
		},
		{
			"name":"body"
		},
		{
			"name":"sphere"
		},
		{
			"name":"ground_wire"
		},
		{
			"matrix":[1000,0,0,0,0,1000,0,0,0,0,1000,0,0,0,0,1
			],
			"name":"sky"
		},
		{
			"matrix":[2.18356991,0,0,0,0,2.18356991,0,0,0,0,2.18356991,0,0,0.00999999978,0,1
			],
			"name":"diagram"
		},
		{
			"children":[17
			],
			"matrix":[1,0,0,0,0,1,0,0,0,0,1,0,-21.4706211,0,40.0602875,1
			],
			"name":"sculpt_03_1"
		},
		{
			"children":[16
			],
			"matrix":[1,0,0,0,0,1,0,0,0,0,1,0,22.8497601,0,40.0602875,1
			],
			"name":"sculpt_02_1"
		},
		{
			"matrix":[2.18356991,0,0,0,0,2.18356991,0,0,1.32337966e-16,0,2.18356991,0,-0.242546558,0.00999999978,-1.0672822,1
			],
			"name":"diagram1"
		},
		{
			"matrix":[2.18356991,0,0,0,0,2.18356991,0,0,0,-6.46181475e-20,2.18356991,0,1.90381575,0.00999999978,-1.45366907,1
			],
			"name":"diagram2"
		},
		{
			"matrix":[1,0,0,0,0,1,0,0,0,0,1,0,0,-1.09592843,0,1
			],
			"name":"hills"
		},
		{
			"name":"hills_wire"
		},
		{
			"name":"body",
			"mesh":1
		},
		{
			"name":"sphere",
			"mesh":2
		},
		{
			"children":[23,24
			],
			"name":"sculpt_02"
		},
		{
			"name":"body",
			"mesh":3
		},
		{
			"name":"sphere",
			"mesh":4
		},
		{
			"children":[26,27
			],
			"name":"sculpt_03"
		},
		{
			"name":"body",
			"mesh":5
		},
		{
			"name":"sphere",
			"mesh":6
		}
	],
	"meshes":[
		{
			"primitives":[
				{
					"attributes":{
						"_coverage":5,
						"_numnonpacked":4,
						"NORMAL":3,
						"TEXCOORD_0":2,
						"POSITION":1
					},
					"indices":0
				}
			]
		},
		{
			"primitives":[
				{
					"attributes":{
						"_coverage":11,
						"_numnonpacked":10,
						"NORMAL":9,
						"TEXCOORD_0":8,
						"POSITION":7
					},
					"indices":6
				}
			]
		},
		{
			"primitives":[
				{
					"attributes":{
						"_coverage":17,
						"_numnonpacked":16,
						"NORMAL":15,
						"TEXCOORD_0":14,
						"POSITION":13
					},
					"indices":12
				}
			]
		},
		{
			"primitives":[
				{
					"attributes":{
						"_coverage":23,
						"_numnonpacked":22,
						"NORMAL":21,
						"TEXCOORD_0":20,
						"POSITION":19
					},
					"indices":18
				}
			]
		},
		{
			"primitives":[
				{
					"attributes":{
						"_coverage":29,
						"_numnonpacked":28,
						"NORMAL":27,
						"TEXCOORD_0":26,
						"POSITION":25
					},
					"indices":24
				}
			]
		},
		{
			"primitives":[
				{
					"attributes":{
						"_coverage":35,
						"_numnonpacked":34,
						"NORMAL":33,
						"TEXCOORD_0":32,
						"POSITION":31
					},
					"indices":30
				}
			]
		},
		{
			"primitives":[
				{
					"attributes":{
						"_coverage":41,
						"_numnonpacked":40,
						"NORMAL":39,
						"TEXCOORD_0":38,
						"POSITION":37
					},
					"indices":36
				}
			]
		}
	],
	"scenes":[
		{
			"nodes":[0
			]
		}
	],
	"scene":0
}
