{
	"asset":{
		"version":"2.0",
		"generator":"Houdini GLTF 2.0 Exporter"
	},
	"accessors":[
		{
			"bufferView":0,
			"componentType":5123,
			"count":2088,
			"type":"SCALAR",
			"min":[0
			],
			"max":[2087
			]
		},
		{
			"bufferView":1,
			"componentType":5126,
			"count":2088,
			"type":"VEC3",
			"min":[-2.92692018,0,-1.66142821
			],
			"max":[2.92692018,8.54632378,1.66142821
			]
		},
		{
			"bufferView":2,
			"componentType":5126,
			"count":2088,
			"type":"VEC2",
			"min":[0,0
			],
			"max":[1,1
			]
		},
		{
			"bufferView":3,
			"componentType":5126,
			"count":2088,
			"type":"VEC3",
			"min":[-1,-1,-1
			],
			"max":[1,1,1
			]
		}
	],
	"buffers":[
		{
			"uri":"sculpt_01_data.bin",
			"byteLength":70992,
			"name":"main_buffer"
		}
	],
	"bufferViews":[
		{
			"buffer":0,
			"byteLength":4176,
			"target":34963
		},
		{
			"buffer":0,
			"byteOffset":4176,
			"byteLength":25056,
			"target":34962
		},
		{
			"buffer":0,
			"byteOffset":29232,
			"byteLength":16704,
			"target":34962
		},
		{
			"buffer":0,
			"byteOffset":45936,
			"byteLength":25056,
			"target":34962
		}
	],
	"nodes":[
		{
			"name":"sculpts",
			"mesh":0
		}
	],
	"meshes":[
		{
			"primitives":[
				{
					"attributes":{
						"NORMAL":3,
						"TEXCOORD_0":2,
						"POSITION":1
					},
					"indices":0
				}
			]
		}
	],
	"scenes":[
		{
			"nodes":[0
			]
		}
	],
	"scene":0
}
