{
	"asset":{
		"version":"2.0",
		"generator":"Houdini GLTF 2.0 Exporter"
	},
	"accessors":[
		{
			"bufferView":0,
			"componentType":5123,
			"count":10902,
			"type":"SCALAR",
			"min":[0
			],
			"max":[10901
			]
		},
		{
			"bufferView":1,
			"componentType":5126,
			"count":10902,
			"type":"SCALAR",
			"min":[0
			],
			"max":[2
			]
		},
		{
			"bufferView":2,
			"componentType":5126,
			"count":10902,
			"type":"SCALAR",
			"min":[-0.0819658414
			],
			"max":[0.760080814
			]
		},
		{
			"bufferView":3,
			"componentType":5126,
			"count":10902,
			"type":"SCALAR",
			"min":[0.86337328
			],
			"max":[1.00009966
			]
		},
		{
			"bufferView":4,
			"componentType":5126,
			"count":10902,
			"type":"VEC4",
			"min":[0,-0.776928782,0,-0.492055923
			],
			"max":[0,0.996469378,0,0.999990344
			]
		},
		{
			"bufferView":5,
			"componentType":5126,
			"count":10902,
			"type":"SCALAR",
			"min":[-0.00118554477
			],
			"max":[0.0299040619
			]
		},
		{
			"bufferView":6,
			"componentType":5126,
			"count":10902,
			"type":"SCALAR",
			"min":[0.201440439
			],
			"max":[2.28241134
			]
		},
		{
			"bufferView":7,
			"componentType":5126,
			"count":10902,
			"type":"SCALAR",
			"min":[0.00137439708
			],
			"max":[0.170259789
			]
		},
		{
			"bufferView":8,
			"componentType":5126,
			"count":10902,
			"type":"SCALAR",
			"min":[0
			],
			"max":[0
			]
		},
		{
			"bufferView":9,
			"componentType":5126,
			"count":10902,
			"type":"VEC3",
			"min":[-72.4820786,-0.292187899,-71.9282379
			],
			"max":[70.3181839,2.73551941,70.4545517
			]
		},
		{
			"bufferView":10,
			"componentType":5126,
			"count":10902,
			"type":"SCALAR",
			"min":[-0.0076526124
			],
			"max":[0.009708439
			]
		},
		{
			"bufferView":11,
			"componentType":5126,
			"count":10902,
			"type":"SCALAR",
			"min":[0.454144418
			],
			"max":[2.37635422
			]
		},
		{
			"bufferView":12,
			"componentType":5126,
			"count":10902,
			"type":"SCALAR",
			"min":[-0.486283451
			],
			"max":[0.443743765
			]
		},
		{
			"bufferView":13,
			"componentType":5126,
			"count":10902,
			"type":"SCALAR",
			"min":[0
			],
			"max":[0
			]
		},
		{
			"bufferView":14,
			"componentType":5126,
			"count":10902,
			"type":"SCALAR",
			"min":[-0.769991875
			],
			"max":[0.430574656
			]
		},
		{
			"bufferView":15,
			"componentType":5126,
			"count":10902,
			"type":"SCALAR",
			"min":[0.459088683
			],
			"max":[2.37078166
			]
		},
		{
			"bufferView":16,
			"componentType":5126,
			"count":10902,
			"type":"VEC2",
			"min":[0,0.000969409943
			],
			"max":[0.99989897,1
			]
		},
		{
			"bufferView":17,
			"componentType":5126,
			"count":10902,
			"type":"VEC3",
			"min":[-0.999593914,-0.993274331,-0.999918222
			],
			"max":[0.999682903,0.997991741,0.999494553
			]
		},
		{
			"bufferView":18,
			"componentType":5125,
			"count":10902,
			"type":"SCALAR",
			"min":[0
			],
			"max":[0
			]
		},
		{
			"bufferView":19,
			"componentType":5126,
			"count":10902,
			"type":"SCALAR",
			"min":[0.500583887
			],
			"max":[0.500583887
			]
		}
	],
	"buffers":[
		{
			"uri":"rocks_data.bin",
			"byteLength":1199220,
			"name":"main_buffer"
		}
	],
	"bufferViews":[
		{
			"buffer":0,
			"byteLength":21804,
			"target":34963
		},
		{
			"buffer":0,
			"byteOffset":21804,
			"byteLength":43608,
			"target":34962
		},
		{
			"buffer":0,
			"byteOffset":65412,
			"byteLength":43608,
			"target":34962
		},
		{
			"buffer":0,
			"byteOffset":109020,
			"byteLength":43608,
			"target":34962
		},
		{
			"buffer":0,
			"byteOffset":152628,
			"byteLength":174432,
			"target":34962
		},
		{
			"buffer":0,
			"byteOffset":327060,
			"byteLength":43608,
			"target":34962
		},
		{
			"buffer":0,
			"byteOffset":370668,
			"byteLength":43608,
			"target":34962
		},
		{
			"buffer":0,
			"byteOffset":414276,
			"byteLength":43608,
			"target":34962
		},
		{
			"buffer":0,
			"byteOffset":457884,
			"byteLength":43608,
			"target":34962
		},
		{
			"buffer":0,
			"byteOffset":501492,
			"byteLength":130824,
			"target":34962
		},
		{
			"buffer":0,
			"byteOffset":632316,
			"byteLength":43608,
			"target":34962
		},
		{
			"buffer":0,
			"byteOffset":675924,
			"byteLength":43608,
			"target":34962
		},
		{
			"buffer":0,
			"byteOffset":719532,
			"byteLength":43608,
			"target":34962
		},
		{
			"buffer":0,
			"byteOffset":763140,
			"byteLength":43608,
			"target":34962
		},
		{
			"buffer":0,
			"byteOffset":806748,
			"byteLength":43608,
			"target":34962
		},
		{
			"buffer":0,
			"byteOffset":850356,
			"byteLength":43608,
			"target":34962
		},
		{
			"buffer":0,
			"byteOffset":893964,
			"byteLength":87216,
			"target":34962
		},
		{
			"buffer":0,
			"byteOffset":981180,
			"byteLength":130824,
			"target":34962
		},
		{
			"buffer":0,
			"byteOffset":1112004,
			"byteLength":43608,
			"target":34962
		},
		{
			"buffer":0,
			"byteOffset":1155612,
			"byteLength":43608,
			"target":34962
		}
	],
	"nodes":[
		{
			"name":"rocks_scatter",
			"mesh":0
		}
	],
	"meshes":[
		{
			"primitives":[
				{
					"attributes":{
						"_numnonpacked":18,
						"NORMAL":17,
						"_coverage":19,
						"_bedrock":15,
						"_flowdir_x":12,
						"TEXCOORD_0":16,
						"_water":10,
						"POSITION":9,
						"_density":7,
						"_height":11,
						"_pscale":6,
						"_flowdir_z":14,
						"_orient":4,
						"_debris":5,
						"_retention":3,
						"_mask":8,
						"_flow":2,
						"_type":1,
						"_flowdir_y":13
					},
					"indices":0
				}
			]
		}
	],
	"scenes":[
		{
			"nodes":[0
			]
		}
	],
	"scene":0
}
