{
	"asset":{
		"version":"2.0",
		"generator":"Houdini GLTF 2.0 Exporter"
	},
	"accessors":[
		{
			"bufferView":0,
			"componentType":5123,
			"count":10902,
			"type":"SCALAR",
			"min":[0
			],
			"max":[10901
			]
		},
		{
			"bufferView":1,
			"componentType":5126,
			"count":10902,
			"type":"SCALAR",
			"min":[0
			],
			"max":[2
			]
		},
		{
			"bufferView":2,
			"componentType":5126,
			"count":10902,
			"type":"SCALAR",
			"min":[0
			],
			"max":[0
			]
		},
		{
			"bufferView":3,
			"componentType":5126,
			"count":10902,
			"type":"VEC4",
			"min":[0,-0.863587439,0,-0.475708365
			],
			"max":[0,0.999780416,0,0.999961495
			]
		},
		{
			"bufferView":4,
			"componentType":5126,
			"count":10902,
			"type":"SCALAR",
			"min":[0
			],
			"max":[0
			]
		},
		{
			"bufferView":5,
			"componentType":5126,
			"count":10902,
			"type":"SCALAR",
			"min":[0.201440439
			],
			"max":[2.28241134
			]
		},
		{
			"bufferView":6,
			"componentType":5126,
			"count":10902,
			"type":"SCALAR",
			"min":[0.0011472418
			],
			"max":[0.161998957
			]
		},
		{
			"bufferView":7,
			"componentType":5126,
			"count":10902,
			"type":"SCALAR",
			"min":[0
			],
			"max":[0
			]
		},
		{
			"bufferView":8,
			"componentType":5126,
			"count":10902,
			"type":"VEC3",
			"min":[-56.5031929,-0.249440491,-68.7799149
			],
			"max":[37.7279472,2.10697293,66.9359665
			]
		},
		{
			"bufferView":9,
			"componentType":5126,
			"count":10902,
			"type":"SCALAR",
			"min":[0
			],
			"max":[0
			]
		},
		{
			"bufferView":10,
			"componentType":5126,
			"count":10902,
			"type":"SCALAR",
			"min":[0.920974493
			],
			"max":[1.09587502
			]
		},
		{
			"bufferView":11,
			"componentType":5126,
			"count":10902,
			"type":"SCALAR",
			"min":[0
			],
			"max":[0
			]
		},
		{
			"bufferView":12,
			"componentType":5126,
			"count":10902,
			"type":"SCALAR",
			"min":[0
			],
			"max":[0
			]
		},
		{
			"bufferView":13,
			"componentType":5126,
			"count":10902,
			"type":"SCALAR",
			"min":[0
			],
			"max":[0
			]
		},
		{
			"bufferView":14,
			"componentType":5126,
			"count":10902,
			"type":"SCALAR",
			"min":[0.920974493
			],
			"max":[1.09587502
			]
		},
		{
			"bufferView":15,
			"componentType":5126,
			"count":10902,
			"type":"VEC2",
			"min":[0,0.000969409943
			],
			"max":[0.99989897,1
			]
		},
		{
			"bufferView":16,
			"componentType":5126,
			"count":10902,
			"type":"VEC3",
			"min":[-0.999544084,-0.993274152,-0.999721944
			],
			"max":[0.999900281,0.997991741,0.999955058
			]
		},
		{
			"bufferView":17,
			"componentType":5125,
			"count":10902,
			"type":"SCALAR",
			"min":[0
			],
			"max":[0
			]
		},
		{
			"bufferView":18,
			"componentType":5126,
			"count":10902,
			"type":"SCALAR",
			"min":[0.500583887
			],
			"max":[0.500583887
			]
		}
	],
	"buffers":[
		{
			"uri":"rocks_data.bin",
			"byteLength":1155612,
			"name":"main_buffer"
		}
	],
	"bufferViews":[
		{
			"buffer":0,
			"byteLength":21804,
			"target":34963
		},
		{
			"buffer":0,
			"byteOffset":21804,
			"byteLength":43608,
			"target":34962
		},
		{
			"buffer":0,
			"byteOffset":65412,
			"byteLength":43608,
			"target":34962
		},
		{
			"buffer":0,
			"byteOffset":109020,
			"byteLength":174432,
			"target":34962
		},
		{
			"buffer":0,
			"byteOffset":283452,
			"byteLength":43608,
			"target":34962
		},
		{
			"buffer":0,
			"byteOffset":327060,
			"byteLength":43608,
			"target":34962
		},
		{
			"buffer":0,
			"byteOffset":370668,
			"byteLength":43608,
			"target":34962
		},
		{
			"buffer":0,
			"byteOffset":414276,
			"byteLength":43608,
			"target":34962
		},
		{
			"buffer":0,
			"byteOffset":457884,
			"byteLength":130824,
			"target":34962
		},
		{
			"buffer":0,
			"byteOffset":588708,
			"byteLength":43608,
			"target":34962
		},
		{
			"buffer":0,
			"byteOffset":632316,
			"byteLength":43608,
			"target":34962
		},
		{
			"buffer":0,
			"byteOffset":675924,
			"byteLength":43608,
			"target":34962
		},
		{
			"buffer":0,
			"byteOffset":719532,
			"byteLength":43608,
			"target":34962
		},
		{
			"buffer":0,
			"byteOffset":763140,
			"byteLength":43608,
			"target":34962
		},
		{
			"buffer":0,
			"byteOffset":806748,
			"byteLength":43608,
			"target":34962
		},
		{
			"buffer":0,
			"byteOffset":850356,
			"byteLength":87216,
			"target":34962
		},
		{
			"buffer":0,
			"byteOffset":937572,
			"byteLength":130824,
			"target":34962
		},
		{
			"buffer":0,
			"byteOffset":1068396,
			"byteLength":43608,
			"target":34962
		},
		{
			"buffer":0,
			"byteOffset":1112004,
			"byteLength":43608,
			"target":34962
		}
	],
	"nodes":[
		{
			"name":"rocks_scatter",
			"mesh":0
		}
	],
	"meshes":[
		{
			"primitives":[
				{
					"attributes":{
						"_numnonpacked":17,
						"NORMAL":16,
						"_coverage":18,
						"_bedrock":14,
						"_flowdir_x":11,
						"TEXCOORD_0":15,
						"_water":9,
						"POSITION":8,
						"_mask":7,
						"_density":6,
						"_height":10,
						"_pscale":5,
						"_flowdir_z":13,
						"_orient":3,
						"_debris":4,
						"_flow":2,
						"_type":1,
						"_flowdir_y":12
					},
					"indices":0,
					"material":0
				}
			]
		}
	],
	"materials":[
		{
			"name":"Material_1",
			"pbrMetallicRoughness":{
				"metallicFactor":0,
				"roughnessFactor":0.65200001,
				"baseColorTexture":{
					"index":0
				}
			}
		}
	],
	"scenes":[
		{
			"nodes":[0
			]
		}
	],
	"textures":[
		{
			"source":0
		}
	],
	"images":[
		{
			"uri":"rock_sheet_01.png",
			"mimeType":"image/png"
		}
	],
	"scene":0
}
